HIERARCHY
ROOT hip
{
	OFFSET 0.000000 0.000000 0.000000 
	CHANNELS 6 Xposition Yposition Zposition Xrotation Zrotation Yrotation
	JOINT abdomen
	{
		OFFSET 0.000000 3.402643 0.000000 
		CHANNELS 3 Xrotation Zrotation Yrotation
		JOINT chest
		{
			OFFSET 0.000000 8.438565 -0.680529 
			CHANNELS 3 Xrotation Zrotation Yrotation
			JOINT neck
			{
				OFFSET 0.000000 10.207942 -0.272212 
				CHANNELS 3 Xrotation Zrotation Yrotation
				JOINT head
				{
					OFFSET 0.000000 3.130431 0.000000 
					CHANNELS 3 Xrotation Zrotation Yrotation
					End Site
					{
						OFFSET 0.000000 3.130435 0.000000 
					}
				}
			}
			JOINT lCollar
			{
				OFFSET 3.470700 6.669187 -0.816635 
				CHANNELS 3 Yrotation Zrotation Xrotation
				JOINT lShldr
				{
					OFFSET 3.198488 0.000000 0.000000 
					CHANNELS 3 Zrotation Yrotation Xrotation
					JOINT lForeArm
					{
						OFFSET 10.139888 0.000000 0.000000 
						CHANNELS 3 Yrotation Zrotation Xrotation
						JOINT lHand
						{
							OFFSET 8.370511 0.000000 0.000000 
							CHANNELS 3 Zrotation Yrotation Xrotation
							End Site
							{
								OFFSET 4.083176 0.000000 0.000000 
							}
						}
					}
				}
			}
			JOINT rCollar
			{
				OFFSET -3.470700 6.669187 -0.816635 
				CHANNELS 3 Yrotation Zrotation Xrotation
				JOINT rShldr
				{
					OFFSET -3.198488 0.000000 0.000000 
					CHANNELS 3 Zrotation Yrotation Xrotation
					JOINT rForeArm
					{
						OFFSET -10.139888 0.000000 0.000000 
						CHANNELS 3 Yrotation Zrotation Xrotation
						JOINT rHand
						{
							OFFSET -8.370511 0.000000 0.000000 
							CHANNELS 3 Zrotation Yrotation Xrotation
							End Site
							{
								OFFSET -4.083176 0.000000 0.000000 
							}
						}
					}
				}
			}
		}
	}
	JOINT lThigh
	{
		OFFSET 5.308129 -1.633274 1.361059 
		CHANNELS 3 Xrotation Zrotation Yrotation
		JOINT lShin
		{
			OFFSET -2.041588 -20.007561 0.000000 
			CHANNELS 3 Xrotation Zrotation Yrotation
			JOINT lFoot
			{
				OFFSET 0.000000 -19.190928 -1.224953 
				CHANNELS 3 Xrotation Yrotation Zrotation
				End Site
				{
					OFFSET 0.000000 -2.449906 4.627600 
				}
			}
		}
	}
	JOINT rThigh
	{
		OFFSET -5.308129 -1.633274 1.361059 
		CHANNELS 3 Xrotation Zrotation Yrotation
		JOINT rShin
		{
			OFFSET 2.041588 -20.007561 0.000000 
			CHANNELS 3 Xrotation Zrotation Yrotation
			JOINT rFoot
			{
				OFFSET 0.000000 -19.190928 -1.224953 
				CHANNELS 3 Xrotation Yrotation Zrotation
				End Site
				{
					OFFSET 0.000000 -2.449906 4.627600 
				}
			}
		}
	}
}
MOTION
Frames: 6
Frame Time: 0.033333
4.151730 42.258801 8.193643 -6.911440 -1.492062 -28.594759 0.000000 0.000000 0.000000 22.794350 0.361156 1.767666 -31.814379 -1.707850 6.457729 25.414860 0.457723 4.248223 -3.521967 9.154817 6.304141 41.174519 -63.550900 -45.018311 -24.072304 4.997758 44.993164 23.813324 6.890174 -9.316410 3.089181 -14.089146 8.026228 89.537796 102.150055 4.561069 57.535671 4.994605 45.000813 -8.247666 -6.874962 -8.858242 -28.901447 21.889555 9.914455 53.947052 -1.988485 -21.531136 -8.055513 -0.132104 1.924221 -9.765599 -28.380241 -16.262691 49.238121 -6.679654 6.893818 -23.669954 1.947395 -7.502160 
4.121633 42.249893 8.319400 -7.137034 -1.650210 -28.352901 0.000000 0.000000 0.000000 22.874701 0.478329 1.601670 -31.798532 -1.417012 6.359333 25.413769 0.175271 4.365274 -3.521967 9.154817 6.304141 40.831699 -63.707859 -45.016953 -24.017864 4.999942 44.993000 23.813738 7.170930 -9.264441 3.089181 -14.089146 8.026228 89.713745 101.762444 4.888762 57.886242 4.990249 44.998718 -8.530548 -6.484872 -8.866327 -28.580322 21.978577 10.048297 54.066734 -2.044294 -21.787106 -8.119881 -0.124712 2.024556 -9.062768 -28.442257 -16.641424 49.151058 -6.595148 7.115461 -23.549259 1.913925 -7.544925 
4.090534 42.248692 8.426991 -7.110106 -1.583777 -28.195349 0.000000 0.000000 0.000000 22.616669 0.663790 1.640741 -31.411425 -1.726684 6.623960 25.080933 0.418693 4.384933 -3.521967 9.154817 6.304141 40.332523 -63.983387 -45.013912 -23.943071 4.994772 44.994553 23.881884 7.007765 -9.302844 3.089181 -14.089146 8.026228 89.311035 101.394135 4.749815 58.009335 4.992995 45.003590 -8.510320 -6.371258 -8.866936 -28.540796 21.958546 10.086498 54.130775 -2.094750 -21.949175 -8.225380 -0.132955 2.096498 -8.760066 -28.551481 -16.867937 48.966309 -6.536792 6.971062 -23.919477 1.930997 -7.571455 
4.041853 42.270164 8.543516 -7.194762 -1.756554 -28.159164 0.000000 0.000000 0.000000 22.776094 0.653920 1.943567 -31.765129 -1.465511 6.369092 25.479656 0.272655 4.336027 -3.521967 9.154817 6.304141 40.696415 -64.082054 -45.018394 -24.072304 4.997758 44.993164 24.139841 6.844535 -9.322894 3.089181 -14.089146 8.026228 90.050934 100.968002 7.118071 58.789051 4.988557 44.999577 -8.433810 -6.588496 -8.867862 -28.128313 22.190220 10.350875 54.142197 -2.172220 -22.228144 -8.551665 -0.155730 2.302798 -8.300985 -28.402975 -16.948154 48.769661 -6.536363 6.956412 -23.767128 1.949311 -7.512955 
4.022697 42.303185 8.665443 -7.467301 -1.756073 -28.188446 0.000000 0.000000 0.000000 22.907465 0.448903 2.148525 -31.844364 -1.339819 6.183141 25.683640 0.262944 4.257902 -3.521967 9.154817 6.304141 40.941971 -64.218399 -45.004852 -24.270096 4.995001 44.997070 24.122648 6.659331 -9.353836 3.089181 -14.089146 8.026228 90.000008 100.771484 7.773265 58.992329 4.986604 45.004017 -8.302291 -6.665646 -8.866693 -27.689333 22.063667 10.493416 54.141880 -2.193870 -22.238462 -8.581247 -0.158110 2.301897 -7.812882 -28.608278 -17.103384 48.581230 -6.538157 7.232854 -23.529184 1.895601 -7.545094 
4.019397 42.294224 8.757353 -7.503070 -1.686596 -28.226307 0.000000 0.000000 0.000000 22.730148 0.409871 2.138757 -31.717209 -1.165146 6.143686 26.034513 -0.136322 4.365246 -3.521967 9.154817 6.304141 41.075382 -64.165955 -45.011951 -24.085716 4.998209 44.990551 24.030987 6.671279 -9.352862 3.089181 -14.089146 8.026228 90.050468 101.085114 6.688359 58.464603 4.984462 45.002228 -8.414300 -6.816176 -8.871878 -27.602062 21.937431 10.460574 54.281113 -2.183162 -22.156183 -8.726008 -0.169247 2.372882 -7.657094 -28.799944 -17.283159 48.484097 -6.501595 7.309062 -23.694139 1.910558 -7.571180 
